<svg xmlns="http://www.w3.org/2000/svg" viewBox="0 0 32.4 33"><defs><style>.cls-1{fill:#e7d4b1;}.cls-2{fill:#d3c2a4;}.cls-3{fill:#cbb292;}.cls-4{fill:#76c9b0;}.cls-5{fill:#fff;}</style></defs><title>Asset 10</title><g id="Layer_2" data-name="Layer 2"><g id="Layer_1-2" data-name="Layer 1"><path class="cls-1" d="M26.08,0h-7.9L3.51,14.62,17.75,28.89,32.4,14.29v-8Zm-.87,8.92A1.76,1.76,0,1,1,27,7.16,1.76,1.76,0,0,1,25.21,8.92Z"/><polygon class="cls-2" points="3.53 14.61 0 18.13 14.24 32.4 17.78 28.87 3.53 14.61"/><path class="cls-3" d="M25.21,5.4a1.76,1.76,0,1,1-1.76,1.76A1.76,1.76,0,0,1,25.21,5.4m0-2.4a4.16,4.16,0,1,0,4.16,4.16A4.16,4.16,0,0,0,25.21,3Z"/><circle class="cls-4" cx="22.2" cy="26.4" r="6.6"/><path class="cls-5" d="M25.8,25.8h-3v-3a.6.6,0,0,0-1.2,0v3.6a.6.6,0,0,0,.6.6h3.6a.6.6,0,0,0,0-1.2Z"/></g></g></svg>