<svg id="Capa_1" data-name="Capa 1" xmlns="http://www.w3.org/2000/svg" viewBox="0 0 106.06 106.06"><defs><style>.cls-1{fill:#fff;}</style></defs><title>Artboard 1</title><path class="cls-1" d="M90.55,15.52a53.05,53.05,0,1,0,0,75A53.12,53.12,0,0,0,90.55,15.52ZM84.76,84.76a44.87,44.87,0,1,1,0-63.46A44.93,44.93,0,0,1,84.76,84.76ZM33.24,38.67a6.2,6.2,0,1,1,6.2,6.2A6.21,6.21,0,0,1,33.24,38.67Zm28.12,0a6.2,6.2,0,1,1,6.2,6.2A6.21,6.21,0,0,1,61.36,38.67ZM76,64.07A24.77,24.77,0,0,1,53.09,78.7C42.79,78.7,33.74,72.93,30,64a3,3,0,0,1,1.62-3.92,3.06,3.06,0,0,1,1.15-.23,3,3,0,0,1,2.77,1.85c2.77,6.69,9.65,11,17.52,11a18.76,18.76,0,0,0,17.42-11A3,3,0,1,1,76,64.07Z"/></svg>