<svg xmlns="http://www.w3.org/2000/svg" viewBox="0 0 30.39 30.39"><defs><style>.cls-1{fill:#288be4;}</style></defs><title>Asset 9</title><g id="Layer_2" data-name="Layer 2"><g id="Layer_1-2" data-name="Layer 1"><path class="cls-1" d="M15.34,0A15.2,15.2,0,1,0,30.39,15.34,15.22,15.22,0,0,0,15.34,0Zm-.26,27.15A12,12,0,1,1,27.16,15.31,12,12,0,0,1,15.08,27.15Z"/><path class="cls-1" d="M23.12,14.8l-6.83-.06.08-8.21a1.25,1.25,0,1,0-2.5,0L13.77,16A1.27,1.27,0,0,0,15,17.23l8.08.08a1.26,1.26,0,1,0,0-2.51Z"/></g></g></svg>