<svg xmlns="http://www.w3.org/2000/svg" viewBox="0 0 38.31 52.67"><defs><style>.cls-1{fill:#fb4d42;}.cls-2{fill:#288be4;}</style></defs><title>Asset 4</title><g id="Layer_2" data-name="Layer 2"><g id="Layer_1-2" data-name="Layer 1"><path class="cls-1" d="M31.12,52.67H7.18A7.19,7.19,0,0,1,0,45.49V7.18A7.19,7.19,0,0,1,7.18,0H31.12a7.19,7.19,0,0,1,7.19,7.18V45.49A7.19,7.19,0,0,1,31.12,52.67ZM7.18,4.79A2.39,2.39,0,0,0,4.79,7.18V45.49a2.39,2.39,0,0,0,2.39,2.39H31.12a2.39,2.39,0,0,0,2.4-2.39V7.18a2.39,2.39,0,0,0-2.4-2.39Z"/><rect class="cls-2" x="7.18" y="11.97" width="23.94" height="4.79"/><rect class="cls-2" x="7.18" y="21.55" width="23.94" height="4.79"/></g></g></svg>