<svg xmlns="http://www.w3.org/2000/svg" viewBox="0 0 36.59 32.52"><defs><style>.cls-1{fill:#f7931e;}</style></defs><title>Asset 8</title><g id="Layer_2" data-name="Layer 2"><g id="Layer_1-2" data-name="Layer 1"><g id="Attention"><path class="cls-1" d="M36.18,28,20.94,1.53a3.05,3.05,0,0,0-5.29,0L.41,28a3,3,0,0,0,2.64,4.57H33.54A3,3,0,0,0,36.18,28ZM3.05,29.48,18.29,3.05h0L33.54,29.47Zm15.24-7.12a2,2,0,1,0,2,2A2,2,0,0,0,18.29,22.36Zm-2-9.15a1.87,1.87,0,0,0,0,.34l1,5.93a1,1,0,0,0,1,.85,1,1,0,0,0,1-.85l1-5.93a1.87,1.87,0,0,0,0-.34,2,2,0,0,0-4.07,0Z"/></g></g></g></svg>