<svg id="Capa_1" data-name="Capa 1" xmlns="http://www.w3.org/2000/svg" viewBox="0 0 426.67 426.67"><defs><style>.cls-1{fill:#fb4d42;}</style></defs><title>Artboard 1</title><path class="cls-1" d="M213.33,0A149.36,149.36,0,0,0,64,149.33c0,46.67,15.89,86.95,81.23,146.86a216.15,216.15,0,0,1,63.08,103.45c4.51,16.92,5,27,5,27s.51-10.11,5-27a215.66,215.66,0,0,1,63.13-103.46c67.07-61.27,81.19-100.05,81.19-146.85A149.36,149.36,0,0,0,213.33,0Zm1.75,202.64a53.33,53.33,0,1,1,51.56-51.55A53.35,53.35,0,0,1,215.08,202.64Z"/></svg>