<svg xmlns="http://www.w3.org/2000/svg" viewBox="0 0 511.96 512"><defs><style>.cls-1{fill:#fff;}</style></defs><title>Asset 2</title><g id="Layer_2" data-name="Layer 2"><g id="Capa_1" data-name="Capa 1"><path class="cls-1" d="M498.77,161.13a45,45,0,0,0-63.64,0L390,206.3V87.43a44.7,44.7,0,0,0-13.18-31.82L334.39,13.18A44.7,44.7,0,0,0,302.57,0H45A45.05,45.05,0,0,0,0,45V467a45.05,45.05,0,0,0,45,45H345a45.05,45.05,0,0,0,45-45V333.63L498.77,224.77A45,45,0,0,0,498.77,161.13ZM300,30c2.84,0,8.3-.49,13.18,4.39l42.43,42.43C360.37,81.58,360,86.8,360,90H300Zm60,437a15,15,0,0,1-15,15H45a15,15,0,0,1-15-15V45A15,15,0,0,1,45,30H270v75a15,15,0,0,0,15,15h75V236.32l-44.26,44.3-21.2,21.2a14.89,14.89,0,0,0-3.62,5.86L269.7,371.32a15,15,0,0,0,19,19l63.64-21.22a14.89,14.89,0,0,0,5.86-3.62l1.82-1.82V467ZM326.36,312.43l21.21,21.21-8.1,8.1-31.82,10.61,10.61-31.82Zm42.42,0-21.21-21.21L419.67,219l21.22,21.22ZM477.55,203.56,462.09,219l-21.21-21.21,15.47-15.48a15,15,0,1,1,21.2,21.22Z"/><path class="cls-1" d="M285,150H75a15,15,0,0,0,0,30H285a15,15,0,0,0,0-30Z"/><path class="cls-1" d="M225,210H75a15,15,0,0,0,0,30H225a15,15,0,0,0,0-30Z"/><path class="cls-1" d="M225,270H75a15,15,0,0,0,0,30H225a15,15,0,0,0,0-30Z"/><path class="cls-1" d="M225,330H75a15,15,0,0,0,0,30H225a15,15,0,0,0,0-30Z"/><path class="cls-1" d="M285,422H195a15,15,0,0,0,0,30h90a15,15,0,0,0,0-30Z"/></g></g></svg>