<svg xmlns="http://www.w3.org/2000/svg" viewBox="0 0 612 544"><defs><style>.cls-1{fill:#fff;}</style></defs><title>Asset 1</title><g id="Layer_2" data-name="Layer 2"><g id="Capa_1" data-name="Capa 1"><g id="Attention"><path class="cls-1" d="M605.22,467.57l-255-442a51,51,0,0,0-88.44,0l-255,442A51,51,0,0,0,51,544H561a51,51,0,0,0,44.22-76.43ZM51,493.05,306,51H306l0,0L561,493ZM306,374a34,34,0,1,0,34,34A34,34,0,0,0,306,374ZM272,221a34.64,34.64,0,0,0,.48,5.71l16.74,99.15a17,17,0,0,0,33.54,0l16.75-99.15A33.59,33.59,0,0,0,340,221a34,34,0,0,0-68,0Z"/></g></g></g></svg>